<svg width="542" height="112" viewBox="0 0 542 112" fill="none" xmlns="http://www.w3.org/2000/svg">
<path d="M112.687 0.739258H6.89881C3.09329 0.739258 0.00830078 4.2122 0.00830078 8.4963V103.504C0.00830078 107.788 3.09329 111.261 6.89881 111.261H112.687C116.492 111.261 119.577 107.788 119.577 103.504V8.4963C119.577 4.2122 116.492 0.739258 112.687 0.739258Z" fill="#D9232A"/>
<path d="M86.7483 52.4542C86.5459 53.2509 86.3385 54.7129 85.6978 55.7198C82.8077 60.261 80.9378 65.514 79.7008 70.9241C78.4415 76.4323 77.5567 78.1371 74.3999 77.2507C70.3575 76.1155 67.6747 72.9937 65.5467 69.2064C59.4564 58.3668 53.443 47.4723 47.3887 36.6072C47.0684 36.0323 46.7577 35.4494 46.4904 34.8411C45.6958 33.0321 45.0427 30.9763 44.9102 28.9759C44.7079 25.9237 46.7757 24.2586 49.3414 25.2707C53.2025 26.7938 56.9862 28.5689 60.786 30.2841C66.197 32.7267 71.6278 35.1198 76.9838 37.7084C81.7488 40.0113 84.7831 44.1816 86.3994 49.69C86.503 50.0437 86.5588 50.4187 86.6061 50.7886C86.6614 51.222 86.6826 51.661 86.7483 52.4542Z" fill="#121316"/>
<path d="M2.5083 106.064V101.632C2.5083 100.653 3.3033 99.9103 4.15579 100.104C6.46612 100.628 8.73624 101.191 11.0337 101.473C13.8375 101.816 16.6845 101.843 19.5106 101.806C36.9163 101.58 54.3215 101.306 71.7268 101.029C83.4038 100.844 95.0804 100.627 106.757 100.426C107.492 100.414 108.228 100.425 108.98 100.678C100.034 101.74 91.0877 102.787 82.1442 103.868C75.195 104.707 68.2576 105.683 61.3003 106.42C56.1346 106.968 50.9475 107.507 45.7656 107.567C32.0599 107.725 18.3519 107.62 4.6448 107.62H3.89053C3.12708 107.62 2.5083 106.923 2.5083 106.064Z" fill="#121316"/>
<path d="M2.42151 80.4752C2.40913 79.5452 3.22409 78.8799 4.00312 79.1898C7.46714 80.5677 10.8136 82.0939 14.2914 82.9198C20.824 84.4712 27.4686 85.4275 34.0694 86.6112C41.8726 88.0105 49.6804 89.3778 57.4843 90.7712C69.4462 92.9072 81.4067 95.0527 93.3673 97.1973C94.2681 97.3588 95.1652 97.5452 96.041 97.9841C92.1659 97.6747 88.2905 97.3717 84.4159 97.0545C78.6568 96.583 72.8979 96.1108 67.1401 95.6216C59.017 94.9313 50.8952 94.2196 42.772 93.5275C35.6317 92.9191 28.4923 92.2972 21.3492 91.7335C15.4734 91.2697 9.59938 90.9029 4.05995 88.255C2.81202 87.6585 2.27896 86.963 2.36973 85.3867C2.46517 83.7315 2.44267 82.0677 2.42151 80.4752Z" fill="#121316"/>
<path d="M84.3001 92.9428C79.7763 91.7334 75.249 90.5413 70.7296 89.3118C52.6336 84.3881 34.5392 79.4561 16.446 74.5196C11.7254 73.2316 7.43186 70.8946 3.60009 67.5583C2.98904 67.0263 2.51454 65.9118 2.45877 65.0281C2.35309 63.3514 2.3672 61.665 2.38663 59.8506C2.39715 58.8629 3.44596 58.3524 4.0867 59.0272C4.92935 59.9146 5.71582 60.7372 6.52866 61.5253C11.2948 66.1469 17.1461 68.1712 22.9844 70.2803C43.0152 77.5165 63.0262 84.8225 83.0441 92.1043C83.4773 92.2619 83.9024 92.4473 84.3314 92.6197L84.3001 92.9428Z" fill="#121316"/>
<path d="M7.41062 33.7744C6.37139 38.7719 7.99159 42.8796 10.5186 46.6564C13.5041 51.1185 17.4914 54.607 21.9546 57.0485C39.5082 66.6508 57.0472 76.2875 74.5897 85.9157C74.829 86.0469 75.0463 86.2287 75.1716 86.6283C68.0862 83.4035 61.0017 80.1764 53.9152 76.9547C42.6908 71.8517 31.4519 66.7889 20.2453 61.6366C14.5314 59.0095 9.45102 55.2919 6.06074 49.3371C4.78565 47.0975 3.90081 44.4552 3.32583 41.8594C2.57941 38.4902 3.71767 35.4242 6.36061 32.9871C6.85201 32.534 7.55543 33.0782 7.41062 33.7744Z" fill="#121316"/>
<path d="M66.4363 78.5496C65.4805 77.9675 64.5066 77.4209 63.6078 76.727C52.9069 68.4662 41.9342 60.6617 30.0602 54.7732C24.0825 51.8089 18.7165 48.0363 15.1042 42.0759C13.452 39.3498 12.2713 36.412 12.4369 32.9964C12.5721 30.2069 13.6451 28.2373 15.6988 27.0649C16.2934 26.7255 16.9939 27.3812 16.7596 28.0837C15.5809 31.6187 16.4628 35.0069 18.0978 38.3017C20.3484 42.837 23.6861 46.1984 27.4971 49.0267C40.0286 58.3269 52.553 67.6391 65.0786 76.9495C65.6037 77.3398 66.1127 77.7579 66.6291 78.163C66.5648 78.2919 66.5005 78.4209 66.4363 78.5496Z" fill="#121316"/>
<path d="M102.966 96.7929C104.784 96.0591 107.16 95.5149 109.144 94.2137C113.385 91.4335 114.959 86.6197 113.224 81.241C111.595 76.189 109.466 71.3373 107.486 66.4336C102.401 53.8416 97.2767 41.2702 92.1741 28.6875C91.9697 28.1833 91.8259 27.6481 91.9451 26.9722C92.3485 27.799 92.7578 28.6223 93.1543 29.4533C100.587 45.0275 107.927 60.6592 115.512 76.1394C117.529 80.2567 117.249 84.4895 116.858 88.6536C116.583 91.5748 114.193 93.4452 111.853 94.7383C108.903 96.3682 105.759 97.0946 102.966 96.7929Z" fill="#121316"/>
<path d="M21.7247 22.6624C23.1404 21.7237 24.549 20.7713 25.9727 19.8483C34.0703 14.5986 42.1615 9.33594 50.2871 4.14185C51.0921 3.62731 52.1135 3.31385 53.0386 3.30172C58.9292 3.225 64.821 3.25137 70.7123 3.2677C71.3389 3.2695 72.0316 3.25811 72.5815 3.53501C78.3447 6.4369 83.2363 10.5196 86.462 16.797C86.5755 17.0179 86.6599 17.2587 86.7452 17.4959C86.7612 17.5401 86.717 17.6117 86.6466 17.8643C86.1984 17.3131 85.8098 16.8218 85.4088 16.3436C79.3734 9.14924 72.0884 4.7403 63.2067 4.51614C60.7167 4.45336 58.0504 5.2854 55.7225 6.39329C44.8949 11.5462 34.158 16.9406 23.3873 22.245C22.8779 22.4958 22.3548 22.7114 21.8381 22.9433C21.8003 22.8496 21.7627 22.7562 21.7247 22.6624Z" fill="#121316"/>
<path d="M61.2302 71.0887C59.6725 69.7904 58.1059 68.5048 56.5582 67.1915C47.7507 59.7172 38.9377 52.251 30.1482 44.7499C26.838 41.925 23.9688 38.607 22.4203 34.1924C21.8251 32.4956 21.5338 30.5371 21.5763 28.7118C21.6338 26.2456 22.8528 24.5451 24.8414 23.8201C25.4881 23.5842 26.1014 24.3589 25.7966 25.043C24.2128 28.599 25.3216 32.0416 26.9719 35.43C29.0196 39.6346 32.2827 42.5792 35.4511 45.6201C43.7595 53.5946 52.0539 61.5876 60.3507 69.5775C60.7422 69.9545 61.1027 70.3721 61.4777 70.7706C61.3953 70.8767 61.3126 70.9826 61.2302 71.0887Z" fill="#121316"/>
<path d="M32.687 20.641C39.2126 18.3106 45.7373 15.9769 52.2643 13.6514C54.6786 12.7912 57.1408 12.0771 59.5062 11.0728C63.5299 9.36447 67.5558 9.47655 71.5402 10.9414C79.0291 13.6945 85.194 18.4273 89.0211 26.4521C89.1833 26.7923 89.3253 27.1466 89.4494 27.5064C89.4808 27.5976 89.4068 27.7352 89.363 27.9342C86.5082 23.1562 82.7748 19.5603 78.368 16.8075C72.7506 13.2984 66.9647 12.6935 60.6613 14.415C51.4405 16.9333 42.0859 18.8307 32.7883 20.9927C32.7545 20.8755 32.7208 20.7582 32.687 20.641Z" fill="#121316"/>
<path d="M89.2051 3.48485C91.161 3.09078 92.5397 3.23208 93.9346 4.61432C101.137 11.7518 108.413 18.7968 115.718 25.803C116.698 26.7438 117.173 27.6515 117.064 29.0993C116.954 30.5609 117.04 32.0415 117.04 34.0106C107.636 23.6981 98.5493 13.7325 89.2051 3.48485Z" fill="#121316"/>
<path d="M84.3184 3.20205C84.7716 3.58324 85.2943 3.89325 85.6677 4.35595C95.4931 16.5284 105.193 28.8333 115.198 40.8152C117.535 43.6142 116.828 46.3695 116.672 49.4569C105.764 34.21 94.8562 18.9631 83.9482 3.71614C84.0716 3.54473 84.195 3.37347 84.3184 3.20205Z" fill="#121316"/>
<path d="M95.5149 94.2883C96.8644 93.9719 98.2457 93.7717 99.5578 93.318C104.006 91.7803 106.215 87.5939 104.955 82.5537C102.785 73.8771 100.401 65.2689 98.1026 56.6332C96.4197 50.3098 94.7303 43.9885 93.3579 37.5398C94.7324 41.5902 96.1166 45.6362 97.4794 49.6915C100.884 59.8232 104.291 69.9538 107.674 80.0947C110.392 88.2436 106.971 94.055 99.2061 94.4945C97.9434 94.566 96.6747 94.5045 95.4088 94.5045C95.4442 94.4325 95.4795 94.3605 95.5149 94.2883Z" fill="#121316"/>
<path d="M87.4115 12.8879C89.5046 16.1863 91.6055 19.4784 93.6894 22.7839C101.245 34.7687 108.8 46.7534 116.327 58.7606C116.701 59.3562 116.972 60.1533 117.007 60.874C117.1 62.812 117.039 64.7593 116.699 66.869C106.824 48.9599 96.9479 31.0508 87.0723 13.1419C87.1854 13.0573 87.2984 12.9726 87.4115 12.8879Z" fill="#121316"/>
<path d="M2.2915 33.1792C2.51524 32.5003 2.63037 31.7392 2.97909 31.1549C8.31368 22.2149 13.6641 13.2867 19.0716 4.40275C19.4092 3.8482 20.2305 3.44964 20.8609 3.38206C21.5912 3.30385 22.3272 3.29396 23.1255 3.30265C24.0934 3.31314 24.6033 4.60383 23.975 5.43258C16.7519 14.9575 9.73943 24.2046 2.72714 33.4517C2.58192 33.3609 2.43658 33.27 2.2915 33.1792Z" fill="#121316"/>
<path d="M33.1403 22.7884C33.917 22.5638 34.5177 23.5216 34.1055 24.2961C32.948 26.4705 33.2106 28.8808 33.9558 31.3976C34.9309 34.6907 36.7498 37.3308 38.8055 39.8379C45.5507 48.0636 52.2632 56.3232 58.9849 64.573C59.2018 64.8391 59.3833 65.142 59.389 65.6367C57.4997 63.587 55.609 61.5388 53.7214 59.487C47.8558 53.1107 41.959 46.7702 36.1399 40.3404C33.1845 37.0747 30.6202 33.4825 30.0415 28.6181C29.7294 25.994 30.9319 23.427 33.1403 22.7884Z" fill="#121316"/>
<path d="M44.0538 21.0976C51.0463 20.2801 58.0672 19.6915 65.0243 18.5907C75.2155 16.9781 82.2595 22.5697 88.2228 30.8224C89.3096 32.3263 89.9586 34.2311 90.6231 36.0859C87.8555 31.0703 84.2271 27.1147 79.6997 24.2031C76.2653 21.9944 72.5979 21.0498 68.6045 21.1674C60.6959 21.4004 52.7815 21.3866 44.8695 21.4705C44.5894 21.4735 44.309 21.4307 44.0288 21.4091C44.0372 21.3053 44.0454 21.2014 44.0538 21.0976Z" fill="#121316"/>
<path d="M10.2189 28.107C14.4348 23.684 18.6507 19.261 22.8664 14.8378C25.9125 11.6419 28.995 8.4883 31.9894 5.2325C33.2297 3.88382 34.9011 3.17944 36.6232 3.27819C36.8543 3.29137 37.086 3.30141 37.3191 3.31205C38.3799 3.36075 38.7949 4.88623 37.9408 5.59601C28.7922 13.1987 19.6436 20.8013 10.4951 28.404C10.403 28.3049 10.311 28.2061 10.2189 28.107Z" fill="#121316"/>
<path d="M89.1919 90.9773C89.5939 90.9773 89.9959 90.9866 90.3976 90.976C95.7607 90.8326 98.2353 87.1713 97.3973 81.2067C95.8581 70.25 94.5226 59.2571 93.1087 48.2781C93.0687 47.9666 93.1037 47.6428 93.3616 47.2747C94.2401 51.6662 95.1192 56.0576 95.9967 60.4493C97.45 67.7224 98.995 74.9745 100.325 82.276C101.329 87.79 98.7134 91.4173 93.7276 91.6816C92.201 91.7625 90.6609 91.5235 89.127 91.4309C89.1485 91.2797 89.1703 91.1285 89.1919 90.9773Z" fill="#121316"/>
<path d="M117.035 17.7956C111.317 12.8952 105.971 8.31367 100.625 3.73212C104.066 3.50721 107.492 2.28485 110.513 5.22824C112.2 6.87254 114.236 8.05715 116.072 9.51761C116.486 9.8465 116.968 10.447 116.992 10.9485C117.094 13.0657 117.035 15.193 117.035 17.7956Z" fill="#121316"/>
<path d="M12.0853 3.26614C8.86911 10.1508 5.85177 16.6098 2.83456 23.069C2.63678 23.0413 2.439 23.0136 2.24121 22.9858C2.4382 19.5138 2.3401 15.9774 2.92494 12.5902C3.3997 9.84037 4.73162 7.28551 5.60607 4.61212C5.93775 3.59803 6.42636 3.19677 7.3832 3.24681C8.81481 3.32173 10.2519 3.26614 12.0853 3.26614Z" fill="#121316"/>
<path d="M56.9125 58.6271C53.7494 54.2468 50.5863 49.8664 47.4233 45.4861C45.5292 42.8629 43.4509 40.3776 41.7958 37.5755C40.2858 35.0188 38.8383 32.2496 38.0792 29.3375C37.2288 26.0757 38.6201 23.5235 41.2118 23.2983C41.8433 23.2435 42.2248 24.0482 41.8587 24.6302C38.7468 29.5777 42.0911 34.2028 44.6333 38.4585C48.0766 44.2225 51.539 49.9796 55.3531 55.4398C56.0156 56.3882 56.6055 57.3951 57.2137 58.3872C57.1133 58.4672 57.0129 58.5471 56.9125 58.6271Z" fill="#121316"/>
<path d="M91.6314 52.2659C92.1171 60.286 92.6035 68.306 93.0882 76.3262C93.2017 78.2054 93.3521 80.0833 93.4112 81.9647C93.5345 85.8946 92.0423 87.9878 88.583 88.3807C87.0406 88.5558 85.4497 88.1884 83.8809 88.0674C83.8908 87.8906 83.9007 87.7138 83.9107 87.5368C84.4495 87.5368 84.9888 87.5551 85.5269 87.5338C89.0443 87.3945 90.9718 85.2338 90.9817 81.2924C91.0058 71.6201 90.9895 61.9477 90.9895 52.2753C91.2035 52.2722 91.4174 52.269 91.6314 52.2659Z" fill="#121316"/>
<path d="M90.433 43.2113C88.6769 38.7744 85.9641 35.2498 82.6071 32.2315C78.8446 28.8486 74.3681 28.0862 69.8532 27.3039C64.4985 26.3762 59.1486 25.4132 53.8179 24.0854C56.2055 24.2465 58.5948 24.3835 60.9806 24.5744C64.3812 24.8465 67.7756 25.235 71.1792 25.4364C77.9191 25.8351 82.94 29.7476 87.0037 35.3846C88.5982 37.5965 89.6775 40.279 90.9915 42.7473C90.8054 42.9021 90.6191 43.0567 90.433 43.2113Z" fill="#121316"/>
<path d="M117.133 101.514C116.92 102.088 116.875 102.526 116.72 102.582C108.933 105.401 101.295 109.17 92.6094 107.257C100.776 105.345 108.824 103.46 117.133 101.514Z" fill="#121316"/>
<path d="M89.3243 59.5063C88.9201 63.5543 88.5098 67.6017 88.1136 71.6507C87.8168 74.6839 87.6167 77.7321 87.2292 80.7501C86.8212 83.9265 84.8985 85.4256 82.0731 84.943C81.2944 84.81 80.5316 84.5597 79.7622 84.0367C80.0493 84.0071 80.3359 83.961 80.6235 83.9505C83.4872 83.8465 84.8311 82.5895 85.396 79.431C86.454 73.5154 87.4952 67.5961 88.5516 61.6803C88.685 60.9332 88.8671 60.1971 89.0265 59.4558C89.1258 59.4726 89.225 59.4895 89.3243 59.5063Z" fill="#121316"/>
<path d="M61.879 28.3036C67.313 29.8916 72.8825 31.0557 78.1431 33.186C83.4594 35.3389 86.9501 40.1045 89.1908 45.9362C89.4226 46.5393 89.4813 47.2266 89.6463 47.9963C88.4114 45.7558 87.4126 43.5456 86.0859 41.622C83.5962 38.0121 80.4311 35.4379 76.4485 34.1123C71.9827 32.6261 67.5826 30.8892 63.1554 29.2558C62.6919 29.0847 62.2393 28.8754 61.7817 28.6838C61.8141 28.557 61.8467 28.4304 61.879 28.3036Z" fill="#121316"/>
<path d="M76.0392 80.477C78.725 80.6042 80.0451 78.969 80.9416 76.3817C82.479 71.9456 84.2104 67.5949 86.1981 63.345C85.0446 67.5384 83.892 71.7321 82.7368 75.9248C82.6002 76.4211 82.4339 76.9074 82.3087 77.4071C81.3494 81.2356 79.3073 82.2726 76.0392 80.477Z" fill="#121316"/>
<path d="M533.489 79.4362L532.87 73.4098V28.293H541.992V79.4362H533.489ZM520.687 79.6642C515.692 79.6642 512.022 77.9703 509.677 74.5825C507.331 71.1946 506.159 66.3518 506.159 60.0539C506.159 53.7343 507.331 48.8914 509.677 45.5253C512.022 42.1592 515.692 40.4761 520.687 40.4761C525.118 40.4761 528.929 41.5511 532.121 43.7011C535.314 45.8293 536.91 48.1313 536.91 50.607L532.87 54.8093C532.87 52.6376 531.98 50.7591 530.199 49.1737C528.418 47.5884 526.29 46.7957 523.815 46.7957C521.187 46.7957 519.124 47.7078 517.625 49.5321C516.148 51.3563 515.41 54.8744 515.41 60.0865C515.41 65.3202 516.148 68.8492 517.625 70.6734C519.124 72.4976 521.187 73.4098 523.815 73.4098C526.29 73.4098 528.418 72.6171 530.199 71.0318C531.98 69.4247 532.87 67.5245 532.87 65.3311L536.91 69.5984C536.91 72.0742 535.314 74.3762 532.121 76.5044C528.929 78.6109 525.118 79.6642 520.687 79.6642Z" fill="white"/>
<path d="M490.362 79.4358V40.8015H499.549V79.4358H490.362ZM490.362 29.6282H499.549V36.5341H490.362V29.6282Z" fill="white"/>
<path d="M473.631 59.4026C473.631 54.3643 473.045 51.009 471.872 49.3368C470.699 47.6646 469.016 46.8285 466.823 46.8285C464.325 46.8285 462.349 47.6863 460.894 49.4019C459.439 51.1176 458.712 53.0612 458.712 55.2329L455.193 53.0178C455.193 49.4997 456.562 46.5353 459.298 44.1248C462.056 41.6925 465.704 40.4763 470.243 40.4763C475.064 40.4763 478.354 42.0074 480.114 45.0694C481.894 48.1098 482.785 52.8875 482.785 59.4026H473.631ZM449.623 79.4364V40.8346H456.724L458.744 47.8383V79.4364H449.623Z" fill="white"/>
<path d="M423.152 79.6968C416.224 79.6968 411.403 77.84 408.689 74.1264C405.974 70.3911 404.617 64.7881 404.617 57.3175C404.617 49.7601 406.007 44.168 408.786 40.5413C411.566 36.8928 416.615 35.0686 423.934 35.0686C430.84 35.0686 435.628 36.7191 438.3 40.0201C440.992 43.321 442.404 47.23 442.534 51.7472H433.283C433.109 47.9684 432.295 45.2972 430.84 43.7336C429.406 42.17 427.115 41.3882 423.966 41.3882C420.709 41.3882 418.222 42.3546 416.507 44.2874C414.813 46.1985 413.966 50.6396 413.966 57.6107C413.966 63.8434 414.813 68.0348 416.507 70.1848C418.222 72.313 420.731 73.3772 424.032 73.3772C427.094 73.3772 429.32 72.7365 430.71 71.4552C432.099 70.1739 432.881 68.0239 433.055 65.0053V62.7576H424.716V57.2524H442.534V79.4362H437.29L436.28 73.4749C434.477 77.5794 430.101 79.6533 423.152 79.6968Z" fill="white"/>
<path d="M379.952 79.4362V28.293H389.106V79.4362H379.952Z" fill="white"/>
<path d="M351.073 79.8271C348.858 79.8271 346.882 79.6425 345.145 79.2734C343.407 78.8825 341.909 78.2418 340.649 77.3514C339.411 76.461 338.467 75.2557 337.815 73.7356C337.164 72.1937 336.838 70.2717 336.838 67.9697C336.838 65.7763 337.153 63.9412 337.783 62.4645C338.412 60.9878 339.324 59.815 340.519 58.9464C341.735 58.056 343.223 57.4153 344.982 57.0244C346.741 56.6335 348.739 56.4381 350.976 56.4381H363.354V54.679C363.354 52.7245 363.007 51.1609 362.312 49.9882C361.639 48.8155 360.672 47.9685 359.413 47.4473C358.153 46.9044 356.644 46.6329 354.885 46.6329C353.451 46.6329 352.137 46.8718 350.943 47.3496C349.749 47.8273 348.739 48.6091 347.913 49.695C347.11 50.7591 346.545 52.2033 346.22 54.0275L337.261 51.5844C337.674 49.5213 338.412 47.7839 339.476 46.3723C340.562 44.939 341.887 43.7989 343.451 42.9519C345.014 42.0832 346.763 41.4534 348.695 41.0625C350.628 40.6499 352.68 40.4436 354.852 40.4436C358.674 40.4436 361.899 40.9322 364.527 41.9095C367.155 42.8868 369.142 44.4504 370.488 46.6003C371.856 48.7286 372.54 51.5735 372.54 55.1351V79.4362H364.918L364.136 74.8105C363.81 75.3969 363.278 75.9832 362.54 76.5696C361.801 77.1342 360.868 77.6663 359.738 78.1658C358.631 78.6653 357.349 79.067 355.894 79.3711C354.439 79.6751 352.832 79.8271 351.073 79.8271ZM353.126 73.8984C354.819 73.8984 356.35 73.703 357.719 73.3121C359.087 72.8995 360.238 72.3674 361.172 71.7159C362.127 71.0644 362.811 70.3803 363.224 69.6636V61.4872H353.126C352.127 61.4872 351.193 61.5741 350.324 61.7478C349.477 61.8999 348.739 62.193 348.109 62.6274C347.479 63.0617 346.991 63.6915 346.643 64.5167C346.296 65.3203 346.122 66.3627 346.122 67.644C346.122 68.9253 346.296 69.9785 346.643 70.8038C346.991 71.6073 347.479 72.2371 348.109 72.6931C348.76 73.1275 349.51 73.4424 350.357 73.6378C351.204 73.8116 352.127 73.8984 353.126 73.8984Z" fill="white"/>
<path d="M320.846 79.4358V40.8015H330.032V79.4358H320.846ZM320.846 29.6282H330.032V36.5341H320.846V29.6282Z" fill="white"/>
<path d="M304.611 79.8922C301.419 79.8922 298.726 79.2081 296.532 77.8399C294.361 76.4718 293.275 73.9852 293.275 70.3802V47.154H284.349V40.8344H293.275V32.0391H302.428V40.8344H314.677V47.154H302.428V68.3279C302.428 70.5431 302.884 71.9981 303.797 72.693C304.73 73.388 306.033 73.7354 307.706 73.7354C309.313 73.7354 310.876 73.464 312.396 72.9211V79.0452C309.921 79.6099 307.326 79.8922 304.611 79.8922Z" fill="white"/>
<path d="M259.137 79.8271C256.922 79.8271 254.946 79.6425 253.209 79.2734C251.471 78.8825 249.973 78.2418 248.713 77.3514C247.475 76.461 246.531 75.2557 245.879 73.7356C245.228 72.1937 244.902 70.2717 244.902 67.9697C244.902 65.7763 245.217 63.9412 245.847 62.4645C246.476 60.9878 247.388 59.815 248.583 58.9464C249.799 58.056 251.287 57.4153 253.046 57.0244C254.805 56.6335 256.803 56.4381 259.04 56.4381H271.418V54.679C271.418 52.7245 271.071 51.1609 270.376 49.9882C269.703 48.8155 268.736 47.9685 267.477 47.4473C266.217 46.9044 264.708 46.6329 262.949 46.6329C261.515 46.6329 260.201 46.8718 259.007 47.3496C257.813 47.8273 256.803 48.6091 255.977 49.695C255.174 50.7591 254.609 52.2033 254.284 54.0275L245.325 51.5844C245.738 49.5213 246.476 47.7839 247.54 46.3723C248.626 44.939 249.951 43.7989 251.515 42.9519C253.078 42.0832 254.826 41.4534 256.759 41.0625C258.692 40.6499 260.744 40.4436 262.916 40.4436C266.738 40.4436 269.963 40.9322 272.591 41.9095C275.219 42.8868 277.206 44.4504 278.552 46.6003C279.92 48.7286 280.604 51.5735 280.604 55.1351V79.4362H272.982L272.2 74.8105C271.874 75.3969 271.342 75.9832 270.604 76.5696C269.865 77.1342 268.932 77.6663 267.802 78.1658C266.695 78.6653 265.413 79.067 263.958 79.3711C262.503 79.6751 260.896 79.8271 259.137 79.8271ZM261.189 73.8984C262.883 73.8984 264.414 73.703 265.783 73.3121C267.151 72.8995 268.302 72.3674 269.236 71.7159C270.191 71.0644 270.875 70.3803 271.288 69.6636V61.4872H261.189C260.191 61.4872 259.257 61.5741 258.388 61.7478C257.541 61.8999 256.803 62.193 256.173 62.6274C255.543 63.0617 255.054 63.6915 254.707 64.5167C254.36 65.3203 254.186 66.3627 254.186 67.644C254.186 68.9253 254.36 69.9785 254.707 70.8038C255.054 71.6073 255.543 72.2371 256.173 72.6931C256.824 73.1275 257.574 73.4424 258.421 73.6378C259.268 73.8116 260.191 73.8984 261.189 73.8984Z" fill="white"/>
<path d="M204.204 93.8672V40.8346H211.306L213.325 47.1217V93.8672H204.204ZM225.606 79.6644C221.176 79.6644 217.354 78.6111 214.14 76.5046C210.925 74.3763 209.318 72.0744 209.318 69.5986L213.325 65.3313C213.325 67.5464 214.226 69.4466 216.029 71.0319C217.853 72.6173 219.992 73.4099 222.446 73.4099C225.096 73.4099 227.148 72.4978 228.603 70.6736C230.08 68.8277 230.818 65.2987 230.818 60.0866C230.818 54.918 230.08 51.4108 228.603 49.5648C227.148 47.7189 225.096 46.7959 222.446 46.7959C219.992 46.7959 217.853 47.5886 216.029 49.1739C214.226 50.7593 213.325 52.6378 213.325 54.8095L209.318 50.6072C209.318 48.1315 210.925 45.8295 214.14 43.7013C217.354 41.5513 221.176 40.4763 225.606 40.4763C230.601 40.4763 234.26 42.1702 236.584 45.5581C238.908 48.9459 240.069 53.7779 240.069 60.0541C240.069 66.3085 238.908 71.1405 236.584 74.5501C234.26 77.9596 230.601 79.6644 225.606 79.6644Z" fill="white"/>
<path d="M179.583 79.6968C172.308 79.6968 167.356 78.3395 164.728 75.6249C162.122 72.8885 160.819 68.8058 160.819 63.3765H170.071C170.071 67.633 170.907 70.3694 172.579 71.5855C174.251 72.8017 176.564 73.4097 179.518 73.4097C182.449 73.4097 184.751 72.9211 186.424 71.9438C188.117 70.9666 188.964 69.5441 188.964 67.6765C188.964 65.4396 187.868 63.8977 185.674 63.0508C183.503 62.1821 180.462 61.3352 176.553 60.5099C170.777 59.2069 166.715 57.7302 164.37 56.0797C162.025 54.4292 160.852 51.7472 160.852 48.0336C160.852 44.472 162.187 41.4208 164.859 38.8799C167.552 36.339 172.416 35.0686 179.452 35.0686C186.554 35.0686 191.429 36.4693 194.079 39.2708C196.728 42.0723 198.053 46.0356 198.053 51.1608H188.769C188.769 47.0129 187.911 44.3417 186.195 43.1473C184.48 41.9529 182.2 41.3556 179.355 41.3556C176.379 41.3556 174.045 41.866 172.351 42.8867C170.657 43.9074 169.81 45.2755 169.81 46.9912C169.81 49.228 170.918 50.7808 173.133 51.6494C175.37 52.5181 178.41 53.3759 182.254 54.2229C188.204 55.5476 192.331 56.9701 194.632 58.4902C196.934 60.0104 198.085 62.649 198.085 66.406C198.085 70.0979 196.772 73.236 194.144 75.8203C191.538 78.4046 186.684 79.6968 179.583 79.6968Z" fill="white"/>
</svg>
