<svg width="599" height="36" viewBox="0 0 599 36" fill="none" xmlns="http://www.w3.org/2000/svg">
<path d="M0 36V33.5C0 31.8667 0.3 30.3333 0.9 28.9C1.53333 27.4667 2.38333 26.2167 3.45 25.15C4.51667 24.0833 5.76667 23.25 7.2 22.65C8.63333 22.0167 10.1667 21.7 11.8 21.7H55.3C56.3667 21.7 57.3667 21.5 58.3 21.1C59.2667 20.6667 60.1 20.1 60.8 19.4C61.5333 18.6667 62.1 17.8333 62.5 16.9C62.9333 15.9333 63.15 14.9167 63.15 13.85C63.15 12.75 62.9333 11.7333 62.5 10.8C62.1 9.83333 61.5333 9 60.8 8.3C60.1 7.56667 59.2667 7 58.3 6.6C57.3667 6.16667 56.3667 5.95 55.3 5.95H0.05V0.949998H55.3C57.0667 0.949998 58.7333 1.3 60.3 2C61.8667 2.66667 63.2333 3.58333 64.4 4.75C65.5667 5.91667 66.4833 7.28333 67.15 8.85C67.8167 10.4167 68.15 12.0833 68.15 13.85C68.15 15.6167 67.8167 17.2833 67.15 18.85C66.4833 20.4167 65.5667 21.7833 64.4 22.95C63.2333 24.1167 61.8667 25.0333 60.3 25.7C58.7333 26.3667 57.0667 26.7 55.3 26.7H11.8C10.8667 26.7 9.98333 26.8833 9.15 27.25C8.31667 27.5833 7.58333 28.0667 6.95 28.7C6.35 29.3 5.86667 30.0167 5.5 30.85C5.16667 31.6833 5 32.5667 5 33.5V36H0ZM88.1348 36L113.335 6.35C114.935 4.65 116.785 3.33333 118.885 2.4C121.018 1.43333 123.251 0.949998 125.585 0.949998C127.918 0.949998 130.135 1.43333 132.235 2.4C134.368 3.33333 136.235 4.65 137.835 6.35L137.885 6.45L163.035 36H156.485L134.085 9.7C132.985 8.5 131.701 7.58333 130.235 6.95C128.768 6.28333 127.218 5.95 125.585 5.95C123.918 5.95 122.351 6.28333 120.885 6.95C119.451 7.58333 118.185 8.5 117.085 9.7L94.6848 36H88.1348ZM250.157 35.95H183.057V0.949998H188.057V30.95H250.157V35.95ZM270.166 5.95V0.949998H337.366V5.95H270.166ZM270.166 36V31H337.366V36H270.166ZM270.166 21V16H337.366V21H270.166ZM357.373 5.95V0.949998H381.073V5.95H357.373ZM388.473 36V16.1C388.473 14 388.873 12.0333 389.673 10.2C390.473 8.36666 391.556 6.76666 392.923 5.4C394.29 4.03333 395.89 2.95 397.723 2.15C399.556 1.35 401.523 0.949998 403.623 0.949998H424.573V5.95H403.623C402.223 5.95 400.906 6.21667 399.673 6.75C398.44 7.28333 397.356 8.01667 396.423 8.95C395.523 9.85 394.806 10.9167 394.273 12.15C393.74 13.3833 393.473 14.7 393.473 16.1V36H388.473ZM444.58 5.95V0.949998H468.28V5.95H444.58ZM475.68 36V16.1C475.68 14 476.08 12.0333 476.88 10.2C477.68 8.36666 478.763 6.76666 480.13 5.4C481.497 4.03333 483.097 2.95 484.93 2.15C486.763 1.35 488.73 0.949998 490.83 0.949998H511.78V5.95H490.83C489.43 5.95 488.113 6.21667 486.88 6.75C485.647 7.28333 484.563 8.01667 483.63 8.95C482.73 9.85 482.013 10.9167 481.48 12.15C480.947 13.3833 480.68 14.7 480.68 16.1V36H475.68ZM531.787 5.95V0.949998H598.987V5.95H531.787ZM531.787 36V31H598.987V36H531.787ZM531.787 21V16H598.987V21H531.787Z" fill="black"/>
</svg>
